<svg xmlns="http://www.w3.org/2000/svg" viewBox="0 0 24 24" fill="currentColor">
  <path d="M4 10.5c-.83 0-1.5.67-1.5 1.5s.67 1.5 1.5 1.5 1.5-.67 1.5-1.5-.67-1.5-1.5-1.5zm0-6c-.83 0-1.5.67-1.5 1.5S3.17 7.5 4 7.5 5.5 6.83 5.5 6 4.83 4.5 4 4.5zm0 12c-.83 0-1.5.67-1.5 1.5S3.17 19.5 4 19.5s1.5-.67 1.5-1.5-.67-1.5-1.5-1.5zm7 2.5c.55 0 1-.45 1-1s-.45-1-1-1-1 .45-1 1 .45 1 1 1zM4 16.5c-.83 0-1.5.67-1.5 1.5s.67 1.5 1.5 1.5 1.5-.67 1.5-1.5-.67-1.5-1.5-1.5zM20 4.5H10v2h10v-2zm-9 7H4v2h7v-2zm0 6H4v2h7v-2zm3.5-3.5c.55 0 1-.45 1-1s-.45-1-1-1-1 .45-1 1 .45 1 1 1zm0-6c.55 0 1-.45 1-1s-.45-1-1-1-1 .45-1 1 .45 1 1 1z"/>
</svg>
